<mxfile host="app.diagrams.net" modified="2024-05-27T00:32:22.436Z" agent="Mozilla/5.0 (Windows NT 10.0; Win64; x64) AppleWebKit/537.36 (KHTML, like Gecko) Chrome/124.0.0.0 Safari/537.36" etag="_VU5TmuwfTtsn-O0TXqZ" version="24.4.4" type="device">
  <diagram name="Page-1" id="RKFAWImEajA0O7VNwOQ2">
    <mxGraphModel dx="794" dy="446" grid="1" gridSize="10" guides="1" tooltips="1" connect="1" arrows="1" fold="1" page="1" pageScale="1" pageWidth="850" pageHeight="1100" math="0" shadow="0">
      <root>
        <mxCell id="0" />
        <mxCell id="1" parent="0" />
        <mxCell id="jS5DAeOdQUqkGCRt5gWH-10" value="Memory" style="rounded=1;whiteSpace=wrap;html=1;fontStyle=1;verticalAlign=top;" parent="1" vertex="1">
          <mxGeometry x="195" y="80" width="163" height="120" as="geometry" />
        </mxCell>
        <mxCell id="hcQNNycDMMvxaYusj2LY-10" style="edgeStyle=orthogonalEdgeStyle;rounded=0;orthogonalLoop=1;jettySize=auto;html=1;" parent="1" source="jS5DAeOdQUqkGCRt5gWH-15" target="hcQNNycDMMvxaYusj2LY-1" edge="1">
          <mxGeometry relative="1" as="geometry" />
        </mxCell>
        <mxCell id="jS5DAeOdQUqkGCRt5gWH-15" value="&lt;b&gt;&lt;i&gt;Task&lt;/i&gt;&lt;/b&gt;" style="shape=note;whiteSpace=wrap;html=1;backgroundOutline=1;darkOpacity=0.05;size=13;" parent="1" vertex="1">
          <mxGeometry x="100" y="275" width="50" height="50" as="geometry" />
        </mxCell>
        <mxCell id="hcQNNycDMMvxaYusj2LY-7" style="edgeStyle=orthogonalEdgeStyle;rounded=0;orthogonalLoop=1;jettySize=auto;html=1;" parent="1" source="hcQNNycDMMvxaYusj2LY-1" target="hcQNNycDMMvxaYusj2LY-3" edge="1">
          <mxGeometry relative="1" as="geometry" />
        </mxCell>
        <mxCell id="hcQNNycDMMvxaYusj2LY-1" value="Planner" style="rounded=1;whiteSpace=wrap;html=1;fontStyle=1;verticalAlign=top;" parent="1" vertex="1">
          <mxGeometry x="195" y="228" width="100" height="145" as="geometry" />
        </mxCell>
        <mxCell id="hcQNNycDMMvxaYusj2LY-8" style="edgeStyle=orthogonalEdgeStyle;rounded=0;orthogonalLoop=1;jettySize=auto;html=1;" parent="1" source="hcQNNycDMMvxaYusj2LY-3" target="hcQNNycDMMvxaYusj2LY-6" edge="1">
          <mxGeometry relative="1" as="geometry" />
        </mxCell>
        <mxCell id="hcQNNycDMMvxaYusj2LY-3" value="Actor" style="rounded=1;whiteSpace=wrap;html=1;fontStyle=1" parent="1" vertex="1">
          <mxGeometry x="389" y="275" width="82" height="50" as="geometry" />
        </mxCell>
        <mxCell id="hcQNNycDMMvxaYusj2LY-9" style="edgeStyle=orthogonalEdgeStyle;rounded=0;orthogonalLoop=1;jettySize=auto;html=1;entryX=1;entryY=0.5;entryDx=0;entryDy=0;exitX=0.56;exitY=0.012;exitDx=0;exitDy=0;exitPerimeter=0;" parent="1" source="hcQNNycDMMvxaYusj2LY-14" target="jS5DAeOdQUqkGCRt5gWH-10" edge="1">
          <mxGeometry relative="1" as="geometry">
            <Array as="points">
              <mxPoint x="565" y="140" />
            </Array>
          </mxGeometry>
        </mxCell>
        <mxCell id="hcQNNycDMMvxaYusj2LY-11" style="edgeStyle=orthogonalEdgeStyle;rounded=0;orthogonalLoop=1;jettySize=auto;html=1;exitX=0.416;exitY=-0.019;exitDx=0;exitDy=0;exitPerimeter=0;" parent="1" source="hcQNNycDMMvxaYusj2LY-14" target="hcQNNycDMMvxaYusj2LY-1" edge="1">
          <mxGeometry relative="1" as="geometry">
            <mxPoint x="255" y="270" as="targetPoint" />
            <Array as="points">
              <mxPoint x="548" y="210" />
              <mxPoint x="255" y="210" />
            </Array>
          </mxGeometry>
        </mxCell>
        <mxCell id="hcQNNycDMMvxaYusj2LY-6" value="Environment" style="text;html=1;align=center;verticalAlign=middle;whiteSpace=wrap;rounded=0;fontStyle=1" parent="1" vertex="1">
          <mxGeometry x="508" y="285.63" width="100" height="28.75" as="geometry" />
        </mxCell>
        <mxCell id="hcQNNycDMMvxaYusj2LY-12" value="" style="endArrow=classic;html=1;rounded=0;exitX=0.415;exitY=1.01;exitDx=0;exitDy=0;exitPerimeter=0;" parent="1" edge="1">
          <mxGeometry width="50" height="50" relative="1" as="geometry">
            <mxPoint x="233.8" y="199.5" as="sourcePoint" />
            <mxPoint x="234" y="230" as="targetPoint" />
          </mxGeometry>
        </mxCell>
        <mxCell id="hcQNNycDMMvxaYusj2LY-14" value="Explainer" style="rounded=1;whiteSpace=wrap;html=1;fontStyle=1" parent="1" vertex="1">
          <mxGeometry x="498" y="233" width="120" height="30" as="geometry" />
        </mxCell>
        <mxCell id="hcQNNycDMMvxaYusj2LY-16" style="edgeStyle=orthogonalEdgeStyle;rounded=0;orthogonalLoop=1;jettySize=auto;html=1;entryX=0.5;entryY=1;entryDx=0;entryDy=0;exitX=0.5;exitY=0;exitDx=0;exitDy=0;" parent="1" source="hcQNNycDMMvxaYusj2LY-6" target="hcQNNycDMMvxaYusj2LY-14" edge="1">
          <mxGeometry relative="1" as="geometry">
            <mxPoint x="579.6" y="289.495" as="sourcePoint" />
            <mxPoint x="579.6" y="269.79999999999995" as="targetPoint" />
          </mxGeometry>
        </mxCell>
        <mxCell id="LRuI7vhQ7CQmzgjfh0Ct-1" value="Short-Term Memory" style="rounded=1;whiteSpace=wrap;html=1;fontStyle=1" parent="1" vertex="1">
          <mxGeometry x="205" y="110" width="80" height="40" as="geometry" />
        </mxCell>
        <mxCell id="LRuI7vhQ7CQmzgjfh0Ct-2" value="Long-Term Memory" style="rounded=1;whiteSpace=wrap;html=1;fontStyle=1" parent="1" vertex="1">
          <mxGeometry x="205" y="155" width="80" height="40" as="geometry" />
        </mxCell>
        <mxCell id="LRuI7vhQ7CQmzgjfh0Ct-4" value="* Procedural&#xa;* Semantic&#xa;* Episodic" style="text;whiteSpace=wrap;verticalAlign=middle;" parent="1" vertex="1">
          <mxGeometry x="285" y="135" width="100" height="80" as="geometry" />
        </mxCell>
        <mxCell id="QjWsHdwX6flKS_30bBn7-1" value="human&lt;div&gt;confirmation&lt;div&gt;(optional)&lt;/div&gt;&lt;/div&gt;" style="shape=umlActor;verticalLabelPosition=bottom;verticalAlign=top;html=1;outlineConnect=0;" parent="1" vertex="1">
          <mxGeometry x="330" y="265" width="15" height="30" as="geometry" />
        </mxCell>
        <mxCell id="QjWsHdwX6flKS_30bBn7-4" value="human&lt;div&gt;confirmation&lt;div&gt;(optional)&lt;/div&gt;&lt;/div&gt;" style="shape=umlActor;verticalLabelPosition=bottom;verticalAlign=top;html=1;outlineConnect=0;" parent="1" vertex="1">
          <mxGeometry x="637" y="233" width="15" height="30" as="geometry" />
        </mxCell>
        <mxCell id="SpQtQ5uj2Ye1LzLL4hJx-4" style="edgeStyle=orthogonalEdgeStyle;rounded=0;orthogonalLoop=1;jettySize=auto;html=1;entryX=0.5;entryY=0;entryDx=0;entryDy=0;" edge="1" parent="1">
          <mxGeometry relative="1" as="geometry">
            <mxPoint x="230" y="296" as="sourcePoint" />
            <mxPoint x="230" y="323" as="targetPoint" />
          </mxGeometry>
        </mxCell>
        <mxCell id="SpQtQ5uj2Ye1LzLL4hJx-2" value="Reinforcement Learning" style="rounded=1;whiteSpace=wrap;html=1;fontStyle=1" vertex="1" parent="1">
          <mxGeometry x="202.5" y="256" width="85" height="40" as="geometry" />
        </mxCell>
        <mxCell id="SpQtQ5uj2Ye1LzLL4hJx-5" style="edgeStyle=orthogonalEdgeStyle;rounded=0;orthogonalLoop=1;jettySize=auto;html=1;" edge="1" parent="1">
          <mxGeometry relative="1" as="geometry">
            <mxPoint x="256" y="323" as="sourcePoint" />
            <mxPoint x="256" y="296" as="targetPoint" />
          </mxGeometry>
        </mxCell>
        <mxCell id="SpQtQ5uj2Ye1LzLL4hJx-3" value="Scientific Method" style="rounded=1;whiteSpace=wrap;html=1;fontStyle=1" vertex="1" parent="1">
          <mxGeometry x="202.5" y="323" width="85" height="40" as="geometry" />
        </mxCell>
      </root>
    </mxGraphModel>
  </diagram>
</mxfile>
